<svg xmlns="http://www.w3.org/2000/svg" viewBox="0 0 64 64" role="img" aria-label="AI Interview Prep">
  <defs>
    <linearGradient id="g" x1="0" y1="0" x2="1" y2="1">
      <stop offset="0" stop-color="#3B82F6"/>
      <stop offset="1" stop-color="#22D3EE"/>
    </linearGradient>
  </defs>

  <!-- rounded background -->
  <rect x="4" y="4" width="56" height="56" rx="14" fill="#0B1020"/>
  
  <!-- chat bubble -->
  <path d="M18 20h28a8 8 0 0 1 8 8v10a8 8 0 0 1-8 8H30l-7 6v-6h-5a8 8 0 0 1-8-8V28a8 8 0 0 1 8-8z"
        fill="url(#g)"/>

  <!-- "AI" -->
  <path d="M26 39l4.6-14h2.8L38 39h-2.8l-1-3.2h-5.6L27.7 39H26zm3.2-5.6h4.2l-2.1-6.7-2.1 6.7z"
        fill="#0B1020"/>
  <rect x="39.8" y="25" width="3.1" height="14" rx="1.2" fill="#0B1020"/>
</svg>
